<svg xmlns="http://www.w3.org/2000/svg" id="Layer_1" data-name="Layer 1" viewBox="0 0 48 48"><defs><style>.cls-1{fill:#d18450;}.cls-2{fill:#c07a49;}.cls-3{fill:#a4693e;}.cls-4{fill:#8d5a33;}.cls-5{fill:#583415;}.cls-6{fill:#fff;}</style></defs><title>ASSETS Part 2</title><path class="cls-1" d="M12.65,35a1.69,1.69,0,0,0-.07-1.29,2.3,2.3,0,0,0-.68-0.67,14.1,14.1,0,0,1-3.79-4.5,21.42,21.42,0,0,1-1.83-5.75A0.88,0.88,0,0,0,5.8,22a0.51,0.51,0,0,0-.5.36,1.84,1.84,0,0,0-.1.71,29.47,29.47,0,0,0,.95,7.46c0.54,2.07,1.25,4.67,3.12,5.69A2.37,2.37,0,0,0,12.65,35Z"/><path class="cls-2" d="M8.81,32.16A12.06,12.06,0,0,1,5.77,22a0.52,0.52,0,0,0-.48.36,1.84,1.84,0,0,0-.1.71,29.47,29.47,0,0,0,.95,7.46c0.54,2.07,1.25,4.67,3.12,5.69l0.15,0.07a1.49,1.49,0,0,0,1-1,2.26,2.26,0,0,0-.35-1.84A9,9,0,0,0,8.81,32.16Z"/><path class="cls-3" d="M0,12.19a7.88,7.88,0,0,0,.71,4.12,3.42,3.42,0,0,0,3.09,2,4,4,0,0,0,2.9-2.26A28,28,0,0,0,8.23,12.3a6.81,6.81,0,0,1,2.18-3.24,2.48,2.48,0,0,1,3.35.29A9.8,9.8,0,0,0,15.52,7a3.78,3.78,0,0,0,.18-3,3.73,3.73,0,0,0-2.06-1.81,9.1,9.1,0,0,0-9,1.13A12.21,12.21,0,0,0,0,12.19Z"/><path class="cls-4" d="M15.69,3.94a2.65,2.65,0,0,0-.13-0.25C13.45,6,9.74,5.72,7.84,8.27c-0.92,1.23-1.22,2.91-2,4.26S3.42,15,1.92,14.66A2.92,2.92,0,0,1,0,12.74a7.45,7.45,0,0,0,.73,3.56,3.42,3.42,0,0,0,3.09,2,4,4,0,0,0,2.9-2.26A28,28,0,0,0,8.23,12.3a6.81,6.81,0,0,1,2.18-3.24,2.48,2.48,0,0,1,3.35.29A9.8,9.8,0,0,0,15.52,7,3.78,3.78,0,0,0,15.69,3.94Z"/><path class="cls-3" d="M48,12.19a7.88,7.88,0,0,1-.71,4.12,3.42,3.42,0,0,1-3.09,2,4,4,0,0,1-2.9-2.26,28,28,0,0,1-1.51-3.77,6.81,6.81,0,0,0-2.18-3.24,2.48,2.48,0,0,0-3.35.29A9.8,9.8,0,0,1,32.48,7a3.78,3.78,0,0,1-.18-3,3.73,3.73,0,0,1,2.06-1.81,9.1,9.1,0,0,1,9,1.13A12.21,12.21,0,0,1,48,12.19Z"/><path class="cls-4" d="M32.31,3.94a2.66,2.66,0,0,1,.13-0.25c2.11,2.28,5.82,2,7.72,4.58,0.92,1.23,1.22,2.91,2,4.26s2.42,2.5,3.92,2.13A2.92,2.92,0,0,0,48,12.74a7.45,7.45,0,0,1-.73,3.56,3.42,3.42,0,0,1-3.09,2,4,4,0,0,1-2.9-2.26,28,28,0,0,1-1.51-3.77,6.81,6.81,0,0,0-2.18-3.24,2.48,2.48,0,0,0-3.35.29A9.8,9.8,0,0,1,32.48,7,3.78,3.78,0,0,1,32.31,3.94Z"/><path class="cls-4" d="M13.86,41.39a16.63,16.63,0,0,0-2.74-8.73A8.66,8.66,0,0,0,8.2,33.73,5,5,0,0,0,6.12,36.5a4.15,4.15,0,0,0,.58,3.66,11.44,11.44,0,0,1,1.24,1.22,1.34,1.34,0,0,1-.13,1.72,1.17,1.17,0,0,0-.85.36,0.62,0.62,0,0,0,.19.67,1,1,0,0,0,.58.17l3.41,0.23a2.36,2.36,0,0,0,2.26-.7A4,4,0,0,0,13.86,41.39Z"/><path class="cls-4" d="M35.75,41.39a16.63,16.63,0,0,1,2.74-8.73,8.66,8.66,0,0,1,2.92,1.07A5,5,0,0,1,43.5,36.5a4.15,4.15,0,0,1-.58,3.66,11.44,11.44,0,0,0-1.24,1.22,1.34,1.34,0,0,0,.13,1.72,1.17,1.17,0,0,1,.85.36,0.62,0.62,0,0,1-.19.67,1,1,0,0,1-.58.17l-3.41.23a2.36,2.36,0,0,1-2.26-.7A4,4,0,0,1,35.75,41.39Z"/><path class="cls-1" d="M19.67,24.64a9.2,9.2,0,0,0-4.38,5.14,15.75,15.75,0,0,0-.78,7.29,10.42,10.42,0,0,0,1.29,4.27,8.26,8.26,0,0,0,3,2.75,12.74,12.74,0,0,0,2.75,1.19A10,10,0,0,0,30.27,44a10.27,10.27,0,0,0,4-8.88,14.85,14.85,0,0,0-1.13-4.29,11.86,11.86,0,0,0-3.74-5.47,9.21,9.21,0,0,0-4.68-1.4A10,10,0,0,0,19.67,24.64Z"/><path class="cls-2" d="M28.59,36.84a7.21,7.21,0,0,1-6.48,1.61,7.39,7.39,0,0,1-4.92-5.05L14.43,36.1q0,0.48.08,1a10.42,10.42,0,0,0,1.29,4.27,8.26,8.26,0,0,0,3,2.75,12.75,12.75,0,0,0,2.75,1.19A10,10,0,0,0,30.27,44a10.27,10.27,0,0,0,4-8.88c0-.06,0-0.12,0-0.18a14.69,14.69,0,0,0-2-4.61A11.84,11.84,0,0,1,28.59,36.84Z"/><path class="cls-3" d="M11.93,43.91a3,3,0,0,0-.32-2.48,24.76,24.76,0,0,1-.85-17,5.89,5.89,0,0,1,1.83-3.07,4,4,0,0,1,3.57-.48,6.9,6.9,0,0,1,3,2.14,4,4,0,0,1,1.16,2.53,6.22,6.22,0,0,1-1.23,2.9,12.85,12.85,0,0,0-1.33,7,19,19,0,0,0,1.47,6.9,10.7,10.7,0,0,1,.85,2.32A2.85,2.85,0,0,1,19.6,47a3.39,3.39,0,0,1-2.33,1,10,10,0,0,1-3.75-.36,3.79,3.79,0,0,1-1.78-1,1.75,1.75,0,0,1-.37-1.91C11.52,44.42,11.77,44.2,11.93,43.91Z"/><path class="cls-4" d="M20.33,25.55A4,4,0,0,0,19.17,23a6.9,6.9,0,0,0-3-2.14,4,4,0,0,0-3.57.48,3.45,3.45,0,0,0-.38.34l0.67,3a4.45,4.45,0,0,1,2.19,3.36,32.26,32.26,0,0,1,.27,4.39,19.11,19.11,0,0,0,2,7.5A14.93,14.93,0,0,1,19,44.11a5.69,5.69,0,0,1-.64,3.63A2.57,2.57,0,0,0,19.6,47a2.85,2.85,0,0,0,.49-2.35,10.7,10.7,0,0,0-.85-2.32,19,19,0,0,1-1.47-6.9,12.85,12.85,0,0,1,1.33-7A6.22,6.22,0,0,0,20.33,25.55Z"/><path class="cls-4" d="M13.17,43.71a6,6,0,0,1,3.53-.24A5.71,5.71,0,0,0,12.09,43a1.61,1.61,0,0,1-.17.88c-0.15.29-.4,0.51-0.55,0.8a1.69,1.69,0,0,0,.19,1.68A3.06,3.06,0,0,1,13.17,43.71Z"/><path class="cls-4" d="M16.91,44.64A5.2,5.2,0,0,0,16.12,48a10,10,0,0,0,1.15,0h0A5.64,5.64,0,0,1,16.91,44.64Z"/><path class="cls-4" d="M14.27,47.78a3.82,3.82,0,0,1,.08-3.07A3.33,3.33,0,0,0,13,47.44l0.49,0.16C13.77,47.67,14,47.73,14.27,47.78Z"/><path class="cls-3" d="M37.36,43.91a3,3,0,0,1,.32-2.48,24.76,24.76,0,0,0,.85-17,5.89,5.89,0,0,0-1.83-3.07,4,4,0,0,0-3.57-.48,6.9,6.9,0,0,0-3,2.14,4,4,0,0,0-1.16,2.53,6.22,6.22,0,0,0,1.23,2.9,12.85,12.85,0,0,1,1.33,7A19,19,0,0,1,30,42.32a10.7,10.7,0,0,0-.85,2.32A2.85,2.85,0,0,0,29.68,47,3.39,3.39,0,0,0,32,48a10,10,0,0,0,3.75-.36,3.79,3.79,0,0,0,1.78-1,1.75,1.75,0,0,0,.37-1.91C37.76,44.42,37.51,44.2,37.36,43.91Z"/><path class="cls-4" d="M28.95,25.55A4,4,0,0,1,30.11,23a6.9,6.9,0,0,1,3-2.14,4,4,0,0,1,3.57.48,3.45,3.45,0,0,1,.38.34l-0.67,3a4.45,4.45,0,0,0-2.19,3.36A32.26,32.26,0,0,0,34,32.5,19.11,19.11,0,0,1,32,40a14.93,14.93,0,0,0-1.76,4.11,5.69,5.69,0,0,0,.64,3.63A2.57,2.57,0,0,1,29.68,47a2.85,2.85,0,0,1-.49-2.35A10.7,10.7,0,0,1,30,42.32a19,19,0,0,0,1.47-6.9,12.85,12.85,0,0,0-1.33-7A6.22,6.22,0,0,1,28.95,25.55Z"/><path class="cls-4" d="M36.11,43.71a6,6,0,0,0-3.53-.24A5.71,5.71,0,0,1,37.19,43a1.61,1.61,0,0,0,.17.88c0.15,0.29.4,0.51,0.55,0.8a1.69,1.69,0,0,1-.19,1.68A3.06,3.06,0,0,0,36.11,43.71Z"/><path class="cls-4" d="M32.37,44.64A5.2,5.2,0,0,1,33.16,48,10,10,0,0,1,32,48h0A5.64,5.64,0,0,0,32.37,44.64Z"/><path class="cls-4" d="M35,47.78a3.82,3.82,0,0,0-.08-3.07,3.33,3.33,0,0,1,1.31,2.73l-0.49.16C35.51,47.67,35.26,47.73,35,47.78Z"/><path class="cls-1" d="M23.45,0C11.54,0,7.72,12.54,9,19.78c1.65,9.52,20.85,12.28,28.59,3.91C43.43,17.34,37.93,0,23.45,0Z"/><path class="cls-2" d="M39.82,15.49a15,15,0,0,1-9.69,5.8,5.5,5.5,0,0,1-3.29-.39,3.29,3.29,0,0,1-1.77-3H23.74A3.44,3.44,0,0,1,20.8,21a8.09,8.09,0,0,1-4.22-.92,19.24,19.24,0,0,1-5.51-3.15,9.75,9.75,0,0,1-2.13-2.7,18.34,18.34,0,0,0,0,5.53c1.65,9.52,20.85,12.28,28.59,3.91C39.38,21.72,40.1,18.71,39.82,15.49Z"/><path class="cls-5" d="M24.26,14.51c-6,0-2.82,5.41-.11,5.41S30.07,14.51,24.26,14.51Z"/><ellipse class="cls-5" cx="18.64" cy="12" rx="1.28" ry="1.46"/><ellipse class="cls-6" cx="18.2" cy="11.45" rx="0.42" ry="0.48"/><ellipse class="cls-6" cx="19.06" cy="12.92" rx="0.21" ry="0.23"/><ellipse class="cls-5" cx="29.41" cy="12" rx="1.28" ry="1.46"/><ellipse class="cls-6" cx="28.96" cy="11.45" rx="0.42" ry="0.48"/><ellipse class="cls-6" cx="29.82" cy="12.92" rx="0.21" ry="0.23"/><path class="cls-5" d="M27.53,21.69A21.31,21.31,0,0,1,25.08,23c-1.47.41-2.65-.36-3.9-1.08a0.19,0.19,0,0,0-.23.3c1.42,1.92,5.61,2.28,6.75-.24C27.75,21.84,27.68,21.64,27.53,21.69Z"/><path class="cls-5" d="M24.38,18.72a0.15,0.15,0,0,0-.29,0,8.72,8.72,0,0,0-.13,2A8.66,8.66,0,0,0,24.1,23a0.31,0.31,0,0,0,.61-0.09A17.49,17.49,0,0,0,24.38,18.72Z"/><wappalyzerData xmlns="" id="wappalyzerData" style="display: none"/><script xmlns="" id="wappalyzerEnvDetection" src="chrome-extension://gppongmhjkpfnbhagpmjfkannfbllamg/js/inject.js"/></svg>